<?xml version="1.0" standalone="no"?>
<!DOCTYPE svg PUBLIC "-//W3C//DTD SVG 20010904//EN"
 "http://www.w3.org/TR/2001/REC-SVG-20010904/DTD/svg10.dtd">
<svg version="1.0" xmlns="http://www.w3.org/2000/svg"
 width="500.000000pt" height="500.000000pt" viewBox="0 0 500.000000 500.000000"
 preserveAspectRatio="xMidYMid meet">
<metadata>
Created by potrace 1.14, written by Peter Selinger 2001-2017
</metadata>
<g transform="translate(0.000000,500.000000) scale(0.100000,-0.100000)"
fill="#000000" stroke="none">
<path d="M0 2500 l0 -2500 2500 0 2500 0 0 2500 0 2500 -2500 0 -2500 0 0
-2500z m2978 1429 c231 -25 438 -91 495 -158 22 -27 27 -42 27 -86 0 -108 -52
-285 -135 -460 -67 -142 -56 -136 -166 -87 -146 64 -237 86 -359 86 -87 1
-112 -2 -145 -20 -51 -26 -78 -75 -71 -128 8 -65 57 -103 276 -212 415 -206
572 -352 652 -604 21 -68 23 -92 22 -260 -1 -168 -3 -194 -28 -284 -102 -375
-343 -595 -721 -657 -191 -32 -563 -10 -733 43 -170 52 -315 157 -372 269 -58
113 -34 354 54 545 35 74 81 144 97 144 4 0 50 -27 101 -61 131 -85 298 -165
385 -185 47 -10 104 -15 157 -13 78 4 87 6 115 33 60 58 51 149 -22 211 -23
20 -123 77 -222 127 -210 105 -304 167 -400 263 -124 123 -202 308 -225 538
-29 278 47 512 223 690 154 156 319 236 557 271 57 8 348 5 438 -5z"/>
</g>
</svg>
